<?xml version="1.0" encoding="UTF-8"?>
<!DOCTYPE svg PUBLIC "-//W3C//DTD SVG 1.1//EN" "http://www.w3.org/Graphics/SVG/1.1/DTD/svg11.dtd">
<svg xmlns="http://www.w3.org/2000/svg" version="1.1" width="2048px" height="2048px" style="shape-rendering:geometricPrecision; text-rendering:geometricPrecision; image-rendering:optimizeQuality; fill-rule:evenodd; clip-rule:evenodd"
  xmlns:xlink="http://www.w3.org/1999/xlink">
  <g>
    <path style="opacity:1" fill="#000000" d="M 983.5,305.5 C 1009.5,305.5 1035.5,305.5 1061.5,305.5C 1062.09,309.347 1063.76,312.68 1066.5,315.5C 1070.15,326.752 1073.48,338.086 1076.5,349.5C 1078.17,368.143 1079.5,386.809 1080.5,405.5C 1081.5,406.5 1082.5,407.5 1083.5,408.5C 1098.2,409.426 1112.87,410.759 1127.5,412.5C 1128.17,413.167 1128.83,413.833 1129.5,414.5C 1136.82,415.593 1144.15,416.593 1151.5,417.5C 1154.17,417.167 1156.83,416.833 1159.5,416.5C 1166.26,396.237 1174.59,376.57 1184.5,357.5C 1189.34,349.812 1194.68,342.479 1200.5,335.5C 1203.44,332.196 1207.11,330.196 1211.5,329.5C 1231.62,335.211 1251.62,341.545 1271.5,348.5C 1274.28,350.54 1277.28,352.207 1280.5,353.5C 1281.83,371.5 1281.83,389.5 1280.5,407.5C 1279.83,411.5 1279.17,415.5 1278.5,419.5C 1277.83,420.167 1277.17,420.833 1276.5,421.5C 1274.9,428.286 1272.9,434.953 1270.5,441.5C 1269.17,446.167 1269.17,450.833 1270.5,455.5C 1289.71,464.79 1308.71,474.457 1327.5,484.5C 1330.5,485.5 1333.5,486.5 1336.5,487.5C 1342.26,485.748 1346.93,482.415 1350.5,477.5C 1355.17,470.167 1359.83,462.833 1364.5,455.5C 1370.34,448.317 1377.34,442.65 1385.5,438.5C 1389.11,433.694 1393.78,430.361 1399.5,428.5C 1402.59,424.621 1406.59,422.288 1411.5,421.5C 1426.14,426.822 1438.81,435.156 1449.5,446.5C 1458.34,450.437 1466.01,456.104 1472.5,463.5C 1473.83,468.833 1473.83,474.167 1472.5,479.5C 1467.02,495.117 1461.02,510.45 1454.5,525.5C 1448.6,534.737 1441.93,543.404 1434.5,551.5C 1433.17,554.833 1433.17,558.167 1434.5,561.5C 1436,562.752 1437.67,563.752 1439.5,564.5C 1455.92,580.582 1471.92,596.915 1487.5,613.5C 1496.33,608.999 1504.33,603.332 1511.5,596.5C 1528.81,586.841 1546.81,578.841 1565.5,572.5C 1570.83,571.167 1576.17,571.167 1581.5,572.5C 1587.13,580.067 1593.47,587.067 1600.5,593.5C 1606.38,604.044 1613.05,614.044 1620.5,623.5C 1621.3,626.244 1622.3,628.911 1623.5,631.5C 1622.19,634.73 1621.19,638.064 1620.5,641.5C 1615.05,647.614 1610.39,654.28 1606.5,661.5C 1596.17,671.833 1585.83,682.167 1575.5,692.5C 1570.51,694.661 1565.84,697.328 1561.5,700.5C 1559.13,702.539 1557.13,704.872 1555.5,707.5C 1567.91,729.653 1579.24,752.32 1589.5,775.5C 1591.49,775.328 1593.16,775.995 1594.5,777.5C 1596,776.248 1597.67,775.248 1599.5,774.5C 1610.7,771.435 1622.04,768.768 1633.5,766.5C 1634.17,765.833 1634.83,765.167 1635.5,764.5C 1654.93,762.937 1674.26,763.27 1693.5,765.5C 1701.98,787.269 1708.64,809.603 1713.5,832.5C 1713.5,839.167 1710.83,844.5 1705.5,848.5C 1700.48,851.343 1695.81,854.676 1691.5,858.5C 1685.8,861.682 1679.8,864.348 1673.5,866.5C 1672.17,867.833 1670.83,869.167 1669.5,870.5C 1663.2,872.652 1657.2,875.318 1651.5,878.5C 1642.96,879.54 1635.29,882.54 1628.5,887.5C 1626.87,894.429 1627.53,901.095 1630.5,907.5C 1632.31,919.445 1633.65,931.445 1634.5,943.5C 1635.17,944.833 1635.83,946.167 1636.5,947.5C 1637.17,952.833 1637.83,958.167 1638.5,963.5C 1653.34,965.132 1668.34,966.132 1683.5,966.5C 1692.52,969.772 1701.86,971.772 1711.5,972.5C 1721.32,975.212 1730.65,978.879 1739.5,983.5C 1740.15,1009.99 1739.48,1036.33 1737.5,1062.5C 1723.18,1068.33 1708.51,1073 1693.5,1076.5C 1676.83,1077.17 1660.17,1077.83 1643.5,1078.5C 1642.01,1080.58 1640.01,1081.58 1637.5,1081.5C 1637.83,1088.2 1637.5,1094.87 1636.5,1101.5C 1635.83,1102.83 1635.17,1104.17 1634.5,1105.5C 1633.02,1116.82 1631.69,1128.15 1630.5,1139.5C 1627.87,1145.88 1626.87,1152.54 1627.5,1159.5C 1633.41,1161.36 1639.41,1163.02 1645.5,1164.5C 1646.17,1165.17 1646.83,1165.83 1647.5,1166.5C 1655.5,1169.17 1663.5,1171.83 1671.5,1174.5C 1672.83,1175.83 1674.17,1177.17 1675.5,1178.5C 1683.15,1181.99 1690.49,1185.99 1697.5,1190.5C 1700.17,1193.17 1702.83,1195.83 1705.5,1198.5C 1707.99,1200.08 1710.66,1201.08 1713.5,1201.5C 1713.95,1211 1712.95,1220.33 1710.5,1229.5C 1709.83,1230.17 1709.17,1230.83 1708.5,1231.5C 1706.91,1237.44 1705.58,1243.44 1704.5,1249.5C 1702.87,1253.75 1700.87,1257.75 1698.5,1261.5C 1697.83,1265.5 1697.17,1269.5 1696.5,1273.5C 1695.5,1277.17 1693.17,1279.5 1689.5,1280.5C 1670.09,1281.99 1650.76,1281.32 1631.5,1278.5C 1620.03,1275.77 1608.7,1272.44 1597.5,1268.5C 1595.67,1267.75 1594,1266.75 1592.5,1265.5C 1580.34,1290.37 1568,1315.04 1555.5,1339.5C 1556.98,1339.24 1558.31,1339.57 1559.5,1340.5C 1565.01,1347.35 1571.68,1352.69 1579.5,1356.5C 1583.91,1361.58 1588.91,1365.91 1594.5,1369.5C 1598.42,1375.43 1603.09,1380.76 1608.5,1385.5C 1613.96,1392.98 1618.63,1400.98 1622.5,1409.5C 1623.91,1416.02 1621.91,1421.36 1616.5,1425.5C 1614.78,1431.24 1611.44,1435.9 1606.5,1439.5C 1605.17,1442.17 1603.83,1444.83 1602.5,1447.5C 1596.17,1455.17 1589.83,1462.83 1583.5,1470.5C 1580.43,1472.35 1577.1,1473.35 1573.5,1473.5C 1561.35,1470.45 1549.35,1466.79 1537.5,1462.5C 1534.45,1458.73 1530.45,1456.73 1525.5,1456.5C 1524.17,1455.17 1522.83,1453.83 1521.5,1452.5C 1511.63,1447.29 1502.3,1441.29 1493.5,1434.5C 1490.17,1433.17 1486.83,1433.17 1483.5,1434.5C 1474.06,1443.94 1464.73,1453.27 1455.5,1462.5C 1448.5,1469.5 1441.5,1476.5 1434.5,1483.5C 1433.23,1487.77 1433.9,1491.77 1436.5,1495.5C 1446.75,1508.44 1455.42,1522.44 1462.5,1537.5C 1465.28,1546.39 1468.61,1555.05 1472.5,1563.5C 1473.83,1570.17 1473.83,1576.83 1472.5,1583.5C 1464.27,1588.4 1456.6,1594.06 1449.5,1600.5C 1443.76,1602.22 1439.1,1605.56 1435.5,1610.5C 1429.78,1612.36 1425.11,1615.69 1421.5,1620.5C 1416.17,1621.83 1410.83,1621.83 1405.5,1620.5C 1398.83,1616.5 1392.17,1612.5 1385.5,1608.5C 1376.5,1599.5 1367.5,1590.5 1358.5,1581.5C 1353.83,1574.17 1349.17,1566.83 1344.5,1559.5C 1343.02,1557.35 1341.02,1556.02 1338.5,1555.5C 1316.04,1566.23 1293.71,1577.23 1271.5,1588.5C 1269.32,1592.63 1268.98,1596.96 1270.5,1601.5C 1274.09,1613.46 1277.42,1625.46 1280.5,1637.5C 1281.5,1655.49 1281.83,1673.49 1281.5,1691.5C 1275.07,1694.38 1268.4,1696.71 1261.5,1698.5C 1251.86,1702.6 1241.86,1705.94 1231.5,1708.5C 1230.83,1709.17 1230.17,1709.83 1229.5,1710.5C 1221.64,1713.15 1213.64,1713.82 1205.5,1712.5C 1198.98,1707.32 1193.98,1700.98 1190.5,1693.5C 1188.5,1691.5 1186.5,1689.5 1184.5,1687.5C 1179.83,1678.17 1175.17,1668.83 1170.5,1659.5C 1167.09,1648.37 1163.43,1637.37 1159.5,1626.5C 1158.5,1626.17 1157.5,1625.83 1156.5,1625.5C 1150.91,1626.87 1145.24,1627.87 1139.5,1628.5C 1138.17,1629.17 1136.83,1629.83 1135.5,1630.5C 1117.33,1632.31 1099.33,1634.65 1081.5,1637.5C 1079.8,1657.44 1078.13,1677.44 1076.5,1697.5C 1075.83,1698.17 1075.17,1698.83 1074.5,1699.5C 1072.22,1712.72 1068.22,1725.38 1062.5,1737.5C 1036.33,1739.48 1009.99,1740.15 983.5,1739.5C 982.411,1735.31 980.744,1731.31 978.5,1727.5C 976.589,1717.27 973.922,1707.27 970.5,1697.5C 967.901,1678.27 965.901,1658.94 964.5,1639.5C 958.783,1638.15 953.116,1636.49 947.5,1634.5C 934.773,1633.72 922.107,1632.38 909.5,1630.5C 903.223,1628.46 896.89,1626.8 890.5,1625.5C 889.158,1627 887.492,1627.67 885.5,1627.5C 885.813,1630.25 885.48,1632.91 884.5,1635.5C 881.376,1640.41 879.376,1645.75 878.5,1651.5C 872.888,1665.39 866.221,1678.72 858.5,1691.5C 853.5,1697.83 848.5,1704.17 843.5,1710.5C 840.102,1712.42 836.435,1713.42 832.5,1713.5C 815.749,1709.9 799.415,1704.9 783.5,1698.5C 778.032,1698.08 773.032,1696.41 768.5,1693.5C 767.663,1691.16 766.329,1689.16 764.5,1687.5C 763.167,1671.5 763.167,1655.5 764.5,1639.5C 767.257,1631.72 769.257,1623.72 770.5,1615.5C 772.5,1610.17 774.5,1604.83 776.5,1599.5C 777.833,1596.83 777.833,1594.17 776.5,1591.5C 766.786,1583.48 755.786,1577.81 743.5,1574.5C 732.386,1566.61 720.386,1560.27 707.5,1555.5C 706.833,1555.83 706.167,1556.17 705.5,1556.5C 701.403,1561.69 697.07,1566.69 692.5,1571.5C 691.167,1574.17 689.833,1576.83 688.5,1579.5C 679.5,1588.5 670.5,1597.5 661.5,1606.5C 654.28,1610.39 647.614,1615.05 641.5,1620.5C 635.5,1621.83 629.5,1621.83 623.5,1620.5C 618.461,1616.97 613.794,1612.97 609.5,1608.5C 603.035,1606.04 597.702,1602.04 593.5,1596.5C 587.764,1594.78 583.097,1591.44 579.5,1586.5C 578.311,1585.57 576.978,1585.24 575.5,1585.5C 573.606,1581.03 572.273,1576.36 571.5,1571.5C 573.504,1563.16 576.504,1555.16 580.5,1547.5C 583.167,1539.5 585.833,1531.5 588.5,1523.5C 591.167,1520.83 593.833,1518.17 596.5,1515.5C 601.769,1505.9 607.436,1496.57 613.5,1487.5C 612.5,1485.5 611.5,1483.5 610.5,1481.5C 595.5,1466.5 580.5,1451.5 565.5,1436.5C 563.283,1435.22 560.949,1434.22 558.5,1433.5C 555.5,1434.5 552.5,1435.5 549.5,1436.5C 544.699,1440.62 539.365,1443.96 533.5,1446.5C 530.833,1449.17 528.167,1451.83 525.5,1454.5C 515.702,1457.4 506.369,1461.4 497.5,1466.5C 490.331,1469.08 482.998,1471.08 475.5,1472.5C 471.5,1473.83 467.5,1473.83 463.5,1472.5C 451.167,1456.17 438.833,1439.83 426.5,1423.5C 424.833,1420.17 423.167,1416.83 421.5,1413.5C 425.167,1406.17 428.833,1398.83 432.5,1391.5C 437.167,1386.83 441.833,1382.17 446.5,1377.5C 449.448,1369.22 455.115,1363.55 463.5,1360.5C 468.356,1354.3 474.356,1349.64 481.5,1346.5C 484.079,1342.9 487.412,1340.56 491.5,1339.5C 491.799,1337.4 491.466,1335.4 490.5,1333.5C 485.833,1326.83 481.167,1320.17 476.5,1313.5C 469.867,1298.89 463.2,1284.23 456.5,1269.5C 455.167,1268.17 453.833,1266.83 452.5,1265.5C 451.5,1266.5 450.5,1267.5 449.5,1268.5C 433.705,1273.52 417.705,1277.52 401.5,1280.5C 386.833,1281.83 372.167,1281.83 357.5,1280.5C 355.668,1279.75 354.001,1278.75 352.5,1277.5C 351.663,1275.16 350.329,1273.16 348.5,1271.5C 347.298,1265.23 345.298,1259.23 342.5,1253.5C 341.833,1249.5 341.167,1245.5 340.5,1241.5C 337.526,1234.27 334.86,1226.93 332.5,1219.5C 329.614,1210.08 331.947,1202.41 339.5,1196.5C 349.37,1191.29 358.704,1185.29 367.5,1178.5C 383.889,1172.15 400.223,1165.82 416.5,1159.5C 416.833,1156.5 417.167,1153.5 417.5,1150.5C 416.687,1142.81 415.687,1135.14 414.5,1127.5C 413.833,1126.17 413.167,1124.83 412.5,1123.5C 411.167,1110.17 409.833,1096.83 408.5,1083.5C 406.695,1081.1 404.362,1079.43 401.5,1078.5C 384.833,1077.83 368.167,1077.17 351.5,1076.5C 350.833,1075.83 350.167,1075.17 349.5,1074.5C 337.323,1073.96 325.99,1070.62 315.5,1064.5C 312.191,1063.28 308.858,1062.28 305.5,1061.5C 305.5,1035.5 305.5,1009.5 305.5,983.5C 314.469,979.241 323.802,975.575 333.5,972.5C 341.437,970.795 349.437,969.461 357.5,968.5C 358.833,967.833 360.167,967.167 361.5,966.5C 376.819,965.501 392.152,965.167 407.5,965.5C 409.82,950.956 411.487,936.289 412.5,921.5C 413.167,920.833 413.833,920.167 414.5,919.5C 416.015,908.201 417.015,896.868 417.5,885.5C 410.209,882.525 402.876,879.525 395.5,876.5C 388.833,874.5 382.167,872.5 375.5,870.5C 365.831,863.997 355.831,857.997 345.5,852.5C 341.167,848.167 336.833,843.833 332.5,839.5C 330.57,830.935 331.903,822.935 336.5,815.5C 339.212,804.656 342.545,793.99 346.5,783.5C 347.167,779.5 347.833,775.5 348.5,771.5C 350.833,769.167 353.167,766.833 355.5,764.5C 373.5,763.167 391.5,763.167 409.5,764.5C 421.5,767.833 433.5,771.167 445.5,774.5C 447.5,775.5 449.5,776.5 451.5,777.5C 453.455,776.547 455.122,775.213 456.5,773.5C 465.833,754.833 475.167,736.167 484.5,717.5C 489.106,713.824 490.439,709.157 488.5,703.5C 485.661,701.58 482.661,699.913 479.5,698.5C 475.298,692.961 469.965,688.961 463.5,686.5C 455.833,678.833 448.167,671.167 440.5,663.5C 438.039,657.035 434.039,651.702 428.5,647.5C 426.954,642.077 424.62,637.077 421.5,632.5C 424.62,627.923 426.954,622.923 428.5,617.5C 434.039,613.298 438.039,607.965 440.5,601.5C 445.167,596.167 449.833,590.833 454.5,585.5C 458.78,573.526 467.114,569.192 479.5,572.5C 492.365,576.598 505.031,581.264 517.5,586.5C 525.188,591.344 532.521,596.677 539.5,602.5C 546.32,607.243 553.653,610.91 561.5,613.5C 561.917,610.657 562.917,607.99 564.5,605.5C 581.196,589.138 597.529,572.472 613.5,555.5C 612.21,553.208 610.543,551.208 608.5,549.5C 607.833,547.5 607.167,545.5 606.5,543.5C 599.731,536.066 593.731,528.066 588.5,519.5C 587.554,514.942 585.554,510.942 582.5,507.5C 579.475,497.404 576.142,487.404 572.5,477.5C 570.053,464.73 575.053,456.397 587.5,452.5C 593.771,445.699 601.104,440.365 609.5,436.5C 613.097,431.555 617.764,428.222 623.5,426.5C 627.176,421.894 631.843,420.561 637.5,422.5C 644.833,427.167 652.167,431.833 659.5,436.5C 663.578,441.249 668.245,445.249 673.5,448.5C 678.425,455.429 684.092,461.762 690.5,467.5C 693.976,474.983 698.976,481.316 705.5,486.5C 708.167,487.833 710.833,487.833 713.5,486.5C 733.5,476.5 753.5,466.5 773.5,456.5C 778.269,452.451 778.602,448.118 774.5,443.5C 773.833,439.5 773.167,435.5 772.5,431.5C 769.198,423.01 766.532,414.343 764.5,405.5C 763.167,388.833 763.167,372.167 764.5,355.5C 766.833,353.167 769.167,350.833 771.5,348.5C 792.186,341.162 813.186,334.828 834.5,329.5C 838.101,331.139 841.767,332.472 845.5,333.5C 846.272,338.373 848.605,342.373 852.5,345.5C 854.361,351.223 857.694,355.89 862.5,359.5C 872.309,378.155 879.976,397.488 885.5,417.5C 911.364,413.512 937.364,410.179 963.5,407.5C 964.841,386.022 967.174,364.688 970.5,343.5C 974.644,330.734 978.977,318.067 983.5,305.5 Z M 975.5,543.5 C 1015.55,542.834 1055.55,543.834 1095.5,546.5C 1096.83,547.167 1098.17,547.833 1099.5,548.5C 1108.24,549.343 1116.91,550.676 1125.5,552.5C 1138.79,555.796 1152.12,559.129 1165.5,562.5C 1208.49,576.997 1249.16,596.331 1287.5,620.5C 1289.93,623.98 1293.26,625.98 1297.5,626.5C 1301.7,632.039 1307.04,636.039 1313.5,638.5C 1322.1,645.096 1330.1,652.43 1337.5,660.5C 1339.5,661.167 1341.5,661.833 1343.5,662.5C 1356.5,675.5 1369.5,688.5 1382.5,701.5C 1383.83,704.167 1385.17,706.833 1386.5,709.5C 1400.79,723.114 1412.79,738.447 1422.5,755.5C 1426.71,759.253 1429.38,763.92 1430.5,769.5C 1434.83,774.16 1438.17,779.494 1440.5,785.5C 1441.83,786.833 1443.17,788.167 1444.5,789.5C 1451.17,802.833 1457.83,816.167 1464.5,829.5C 1467.17,837.5 1469.83,845.5 1472.5,853.5C 1474.33,855.156 1475.66,857.156 1476.5,859.5C 1480.1,869.226 1482.77,879.226 1484.5,889.5C 1489.96,902.246 1493.3,915.58 1494.5,929.5C 1495.17,930.167 1495.83,930.833 1496.5,931.5C 1498.07,944.809 1499.41,958.143 1500.5,971.5C 1501.17,972.833 1501.83,974.167 1502.5,975.5C 1503.83,1006.83 1503.83,1038.17 1502.5,1069.5C 1501.83,1070.83 1501.17,1072.17 1500.5,1073.5C 1499.61,1086.88 1498.27,1100.21 1496.5,1113.5C 1491.58,1134.25 1486.25,1154.92 1480.5,1175.5C 1479.83,1176.17 1479.17,1176.83 1478.5,1177.5C 1474.14,1190.27 1469.47,1202.93 1464.5,1215.5C 1457.83,1228.83 1451.17,1242.17 1444.5,1255.5C 1438.34,1267.16 1431.67,1278.5 1424.5,1289.5C 1420.97,1294.54 1416.97,1299.21 1412.5,1303.5C 1407.83,1310.83 1403.17,1318.17 1398.5,1325.5C 1375.5,1351.17 1351.17,1375.5 1325.5,1398.5C 1318.17,1403.17 1310.83,1407.83 1303.5,1412.5C 1299.21,1416.97 1294.54,1420.97 1289.5,1424.5C 1278.5,1431.67 1267.16,1438.34 1255.5,1444.5C 1242.17,1451.17 1228.83,1457.83 1215.5,1464.5C 1202.93,1469.47 1190.27,1474.14 1177.5,1478.5C 1176.83,1479.17 1176.17,1479.83 1175.5,1480.5C 1154.92,1486.25 1134.25,1491.58 1113.5,1496.5C 1100.21,1498.27 1086.88,1499.61 1073.5,1500.5C 1072.17,1501.17 1070.83,1501.83 1069.5,1502.5C 1038.17,1503.83 1006.83,1503.83 975.5,1502.5C 974.167,1501.83 972.833,1501.17 971.5,1500.5C 958.143,1499.41 944.809,1498.07 931.5,1496.5C 930.833,1495.83 930.167,1495.17 929.5,1494.5C 915.58,1493.3 902.246,1489.96 889.5,1484.5C 879.226,1482.77 869.226,1480.1 859.5,1476.5C 857.156,1475.66 855.156,1474.33 853.5,1472.5C 845.5,1469.83 837.5,1467.17 829.5,1464.5C 810.197,1455.52 791.531,1445.52 773.5,1434.5C 772.167,1433.17 770.833,1431.83 769.5,1430.5C 763.92,1429.38 759.253,1426.71 755.5,1422.5C 738.447,1412.79 723.114,1400.79 709.5,1386.5C 706.833,1385.17 704.167,1383.83 701.5,1382.5C 688.5,1369.5 675.5,1356.5 662.5,1343.5C 661.833,1341.5 661.167,1339.5 660.5,1337.5C 649.917,1328.3 641.25,1317.63 634.5,1305.5C 629.555,1301.9 626.222,1297.24 624.5,1291.5C 619.833,1284.83 615.167,1278.17 610.5,1271.5C 586.956,1231.09 568.956,1188.42 556.5,1143.5C 552.816,1129.07 550.149,1114.41 548.5,1099.5C 547.833,1098.17 547.167,1096.83 546.5,1095.5C 542.5,1047.5 542.5,999.5 546.5,951.5C 547.167,950.167 547.833,948.833 548.5,947.5C 550.146,928.25 554.146,909.584 560.5,891.5C 561.167,887.5 561.833,883.5 562.5,879.5C 563.167,878.833 563.833,878.167 564.5,877.5C 569.943,860.618 575.943,843.951 582.5,827.5C 588.5,815.5 594.5,803.5 600.5,791.5C 605.506,785.497 609.506,778.83 612.5,771.5C 616.032,767.308 618.698,762.641 620.5,757.5C 624.026,752.461 628.026,747.794 632.5,743.5C 634.961,737.035 638.961,731.702 644.5,727.5C 645.167,725.5 645.833,723.5 646.5,721.5C 670.167,695.167 695.167,670.167 721.5,646.5C 727.236,644.778 731.903,641.445 735.5,636.5C 738.167,635.167 740.833,633.833 743.5,632.5C 747.794,628.026 752.461,624.026 757.5,620.5C 762.641,618.698 767.308,616.032 771.5,612.5C 778.83,609.506 785.497,605.506 791.5,600.5C 835.397,577.429 881.397,560.762 929.5,550.5C 944.941,547.395 960.275,545.062 975.5,543.5 Z M 815.5,799.5 C 953.502,799.167 1091.5,799.5 1229.5,800.5C 1237.17,802.833 1242.17,807.833 1244.5,815.5C 1245.83,952.833 1245.83,1090.17 1244.5,1227.5C 1242.17,1235.17 1237.17,1240.17 1229.5,1242.5C 1091.5,1243.83 953.5,1243.83 815.5,1242.5C 807.833,1240.17 802.833,1235.17 800.5,1227.5C 799.167,1090.17 799.167,952.833 800.5,815.5C 801.833,812.833 803.167,810.167 804.5,807.5C 808.124,804.546 811.791,801.879 815.5,799.5 Z"/>
  </g>
  <g>
    <path style="opacity:1" fill="#46583a" d="M 442.5,413.5 C 443.077,412.227 443.743,412.227 444.5,413.5C 444.03,414.463 443.363,414.463 442.5,413.5 Z"/>
  </g>
  <g>
    <path style="opacity:1" fill="#000000" d="M 819.5,681.5 C 824.875,681.172 830.208,681.505 835.5,682.5C 836.5,683.5 837.5,684.5 838.5,685.5C 839.499,700.819 839.833,716.152 839.5,731.5C 844.005,732.331 847.005,734.998 848.5,739.5C 849.498,748.141 849.831,756.808 849.5,765.5C 860.833,765.5 872.167,765.5 883.5,765.5C 883.169,756.808 883.502,748.141 884.5,739.5C 885.995,734.998 888.995,732.331 893.5,731.5C 893.167,716.152 893.501,700.819 894.5,685.5C 897.447,682.486 901.113,681.152 905.5,681.5C 909.887,681.152 913.553,682.486 916.5,685.5C 917.499,700.819 917.833,716.152 917.5,731.5C 922.005,732.331 925.005,734.998 926.5,739.5C 927.498,748.141 927.831,756.808 927.5,765.5C 938.833,765.5 950.167,765.5 961.5,765.5C 961.169,756.808 961.502,748.141 962.5,739.5C 963.995,734.998 966.995,732.331 971.5,731.5C 971.167,716.152 971.501,700.819 972.5,685.5C 975.447,682.486 979.113,681.152 983.5,681.5C 987.887,681.152 991.553,682.486 994.5,685.5C 995.499,700.819 995.833,716.152 995.5,731.5C 1000,732.331 1003,734.998 1004.5,739.5C 1005.5,748.141 1005.83,756.808 1005.5,765.5C 1016.83,765.5 1028.17,765.5 1039.5,765.5C 1039.17,756.808 1039.5,748.141 1040.5,739.5C 1042,734.998 1045,732.331 1049.5,731.5C 1049.17,716.152 1049.5,700.819 1050.5,685.5C 1053.45,682.486 1057.11,681.152 1061.5,681.5C 1065.89,681.152 1069.55,682.486 1072.5,685.5C 1073.5,700.819 1073.83,716.152 1073.5,731.5C 1078,732.331 1081,734.998 1082.5,739.5C 1083.5,748.141 1083.83,756.808 1083.5,765.5C 1094.83,765.5 1106.17,765.5 1117.5,765.5C 1117.17,756.808 1117.5,748.141 1118.5,739.5C 1120,734.998 1123,732.331 1127.5,731.5C 1127.17,716.152 1127.5,700.819 1128.5,685.5C 1131.45,682.486 1135.11,681.152 1139.5,681.5C 1143.89,681.152 1147.55,682.486 1150.5,685.5C 1151.5,700.819 1151.83,716.152 1151.5,731.5C 1156,732.331 1159,734.998 1160.5,739.5C 1161.5,748.141 1161.83,756.808 1161.5,765.5C 1172.83,765.5 1184.17,765.5 1195.5,765.5C 1195.17,756.808 1195.5,748.141 1196.5,739.5C 1198,734.998 1201,732.331 1205.5,731.5C 1205.17,716.152 1205.5,700.819 1206.5,685.5C 1209.45,682.486 1213.11,681.152 1217.5,681.5C 1221.89,681.152 1225.55,682.486 1228.5,685.5C 1229.5,700.819 1229.83,716.152 1229.5,731.5C 1234,732.331 1237,734.998 1238.5,739.5C 1239.5,748.141 1239.83,756.808 1239.5,765.5C 1242.25,765.187 1244.91,765.52 1247.5,766.5C 1261.83,772.833 1272.17,783.167 1278.5,797.5C 1279.48,800.086 1279.81,802.753 1279.5,805.5C 1288.19,805.169 1296.86,805.502 1305.5,806.5C 1310,807.995 1312.67,810.995 1313.5,815.5C 1328.85,815.167 1344.18,815.501 1359.5,816.5C 1362.51,819.447 1363.85,823.113 1363.5,827.5C 1363.85,831.887 1362.51,835.553 1359.5,838.5C 1344.18,839.499 1328.85,839.833 1313.5,839.5C 1312.67,844.005 1310,847.005 1305.5,848.5C 1296.86,849.498 1288.19,849.831 1279.5,849.5C 1279.5,860.833 1279.5,872.167 1279.5,883.5C 1288.19,883.169 1296.86,883.502 1305.5,884.5C 1310,885.995 1312.67,888.995 1313.5,893.5C 1328.85,893.167 1344.18,893.501 1359.5,894.5C 1362.51,897.447 1363.85,901.113 1363.5,905.5C 1363.85,909.887 1362.51,913.553 1359.5,916.5C 1344.18,917.499 1328.85,917.833 1313.5,917.5C 1312.67,922.005 1310,925.005 1305.5,926.5C 1296.86,927.498 1288.19,927.831 1279.5,927.5C 1279.5,938.833 1279.5,950.167 1279.5,961.5C 1288.19,961.169 1296.86,961.502 1305.5,962.5C 1310,963.995 1312.67,966.995 1313.5,971.5C 1328.85,971.167 1344.18,971.501 1359.5,972.5C 1362.51,975.447 1363.85,979.113 1363.5,983.5C 1363.85,987.887 1362.51,991.553 1359.5,994.5C 1344.18,995.499 1328.85,995.833 1313.5,995.5C 1312.67,1000 1310,1003 1305.5,1004.5C 1296.86,1005.5 1288.19,1005.83 1279.5,1005.5C 1279.5,1016.83 1279.5,1028.17 1279.5,1039.5C 1288.19,1039.17 1296.86,1039.5 1305.5,1040.5C 1310,1042 1312.67,1045 1313.5,1049.5C 1328.85,1049.17 1344.18,1049.5 1359.5,1050.5C 1362.51,1053.45 1363.85,1057.11 1363.5,1061.5C 1363.85,1065.89 1362.51,1069.55 1359.5,1072.5C 1344.18,1073.5 1328.85,1073.83 1313.5,1073.5C 1312.67,1078 1310,1081 1305.5,1082.5C 1296.86,1083.5 1288.19,1083.83 1279.5,1083.5C 1279.5,1094.83 1279.5,1106.17 1279.5,1117.5C 1288.19,1117.17 1296.86,1117.5 1305.5,1118.5C 1310,1120 1312.67,1123 1313.5,1127.5C 1328.85,1127.17 1344.18,1127.5 1359.5,1128.5C 1362.51,1131.45 1363.85,1135.11 1363.5,1139.5C 1363.85,1143.89 1362.51,1147.55 1359.5,1150.5C 1344.18,1151.5 1328.85,1151.83 1313.5,1151.5C 1312.67,1156 1310,1159 1305.5,1160.5C 1296.86,1161.5 1288.19,1161.83 1279.5,1161.5C 1279.5,1172.83 1279.5,1184.17 1279.5,1195.5C 1288.19,1195.17 1296.86,1195.5 1305.5,1196.5C 1310,1198 1312.67,1201 1313.5,1205.5C 1328.85,1205.17 1344.18,1205.5 1359.5,1206.5C 1362.51,1209.45 1363.85,1213.11 1363.5,1217.5C 1363.85,1221.89 1362.51,1225.55 1359.5,1228.5C 1344.18,1229.5 1328.85,1229.83 1313.5,1229.5C 1312.67,1234 1310,1237 1305.5,1238.5C 1296.86,1239.5 1288.19,1239.83 1279.5,1239.5C 1279.81,1242.25 1279.48,1244.91 1278.5,1247.5C 1272.17,1261.83 1261.83,1272.17 1247.5,1278.5C 1244.91,1279.48 1242.25,1279.81 1239.5,1279.5C 1239.83,1288.19 1239.5,1296.86 1238.5,1305.5C 1237,1310 1234,1312.67 1229.5,1313.5C 1229.83,1328.85 1229.5,1344.18 1228.5,1359.5C 1225.55,1362.51 1221.89,1363.85 1217.5,1363.5C 1213.11,1363.85 1209.45,1362.51 1206.5,1359.5C 1205.5,1344.18 1205.17,1328.85 1205.5,1313.5C 1201,1312.67 1198,1310 1196.5,1305.5C 1195.5,1296.86 1195.17,1288.19 1195.5,1279.5C 1184.17,1279.5 1172.83,1279.5 1161.5,1279.5C 1161.83,1288.19 1161.5,1296.86 1160.5,1305.5C 1159,1310 1156,1312.67 1151.5,1313.5C 1151.83,1328.85 1151.5,1344.18 1150.5,1359.5C 1147.55,1362.51 1143.89,1363.85 1139.5,1363.5C 1135.11,1363.85 1131.45,1362.51 1128.5,1359.5C 1127.5,1344.18 1127.17,1328.85 1127.5,1313.5C 1123,1312.67 1120,1310 1118.5,1305.5C 1117.5,1296.86 1117.17,1288.19 1117.5,1279.5C 1106.17,1279.5 1094.83,1279.5 1083.5,1279.5C 1083.83,1288.19 1083.5,1296.86 1082.5,1305.5C 1081,1310 1078,1312.67 1073.5,1313.5C 1073.83,1328.85 1073.5,1344.18 1072.5,1359.5C 1069.55,1362.51 1065.89,1363.85 1061.5,1363.5C 1057.11,1363.85 1053.45,1362.51 1050.5,1359.5C 1049.5,1344.18 1049.17,1328.85 1049.5,1313.5C 1045,1312.67 1042,1310 1040.5,1305.5C 1039.5,1296.86 1039.17,1288.19 1039.5,1279.5C 1028.17,1279.5 1016.83,1279.5 1005.5,1279.5C 1005.83,1288.19 1005.5,1296.86 1004.5,1305.5C 1003,1310 1000,1312.67 995.5,1313.5C 995.833,1328.85 995.499,1344.18 994.5,1359.5C 991.553,1362.51 987.887,1363.85 983.5,1363.5C 979.113,1363.85 975.447,1362.51 972.5,1359.5C 971.501,1344.18 971.167,1328.85 971.5,1313.5C 966.995,1312.67 963.995,1310 962.5,1305.5C 961.502,1296.86 961.169,1288.19 961.5,1279.5C 950.167,1279.5 938.833,1279.5 927.5,1279.5C 927.831,1288.19 927.498,1296.86 926.5,1305.5C 925.005,1310 922.005,1312.67 917.5,1313.5C 917.833,1328.85 917.499,1344.18 916.5,1359.5C 913.553,1362.51 909.887,1363.85 905.5,1363.5C 901.113,1363.85 897.447,1362.51 894.5,1359.5C 893.501,1344.18 893.167,1328.85 893.5,1313.5C 888.995,1312.67 885.995,1310 884.5,1305.5C 883.502,1296.86 883.169,1288.19 883.5,1279.5C 872.167,1279.5 860.833,1279.5 849.5,1279.5C 849.831,1288.19 849.498,1296.86 848.5,1305.5C 847.005,1310 844.005,1312.67 839.5,1313.5C 839.833,1328.85 839.499,1344.18 838.5,1359.5C 835.553,1362.51 831.887,1363.85 827.5,1363.5C 823.113,1363.85 819.447,1362.51 816.5,1359.5C 815.501,1344.18 815.167,1328.85 815.5,1313.5C 810.995,1312.67 807.995,1310 806.5,1305.5C 805.502,1296.86 805.169,1288.19 805.5,1279.5C 802.753,1279.81 800.086,1279.48 797.5,1278.5C 783.167,1272.17 772.833,1261.83 766.5,1247.5C 765.52,1244.91 765.187,1242.25 765.5,1239.5C 756.808,1239.83 748.141,1239.5 739.5,1238.5C 734.998,1237 732.331,1234 731.5,1229.5C 716.152,1229.83 700.819,1229.5 685.5,1228.5C 682.486,1225.55 681.152,1221.89 681.5,1217.5C 681.152,1213.11 682.486,1209.45 685.5,1206.5C 700.819,1205.5 716.152,1205.17 731.5,1205.5C 732.331,1201 734.998,1198 739.5,1196.5C 748.141,1195.5 756.808,1195.17 765.5,1195.5C 765.5,1184.17 765.5,1172.83 765.5,1161.5C 756.808,1161.83 748.141,1161.5 739.5,1160.5C 734.998,1159 732.331,1156 731.5,1151.5C 716.152,1151.83 700.819,1151.5 685.5,1150.5C 682.486,1147.55 681.152,1143.89 681.5,1139.5C 681.152,1135.11 682.486,1131.45 685.5,1128.5C 700.819,1127.5 716.152,1127.17 731.5,1127.5C 732.331,1123 734.998,1120 739.5,1118.5C 748.141,1117.5 756.808,1117.17 765.5,1117.5C 765.5,1106.17 765.5,1094.83 765.5,1083.5C 756.808,1083.83 748.141,1083.5 739.5,1082.5C 734.998,1081 732.331,1078 731.5,1073.5C 716.152,1073.83 700.819,1073.5 685.5,1072.5C 682.486,1069.55 681.152,1065.89 681.5,1061.5C 681.152,1057.11 682.486,1053.45 685.5,1050.5C 700.819,1049.5 716.152,1049.17 731.5,1049.5C 732.331,1045 734.998,1042 739.5,1040.5C 748.141,1039.5 756.808,1039.17 765.5,1039.5C 765.5,1028.17 765.5,1016.83 765.5,1005.5C 756.808,1005.83 748.141,1005.5 739.5,1004.5C 734.998,1003 732.331,1000 731.5,995.5C 716.152,995.833 700.819,995.499 685.5,994.5C 682.486,991.553 681.152,987.887 681.5,983.5C 681.152,979.113 682.486,975.447 685.5,972.5C 700.819,971.501 716.152,971.167 731.5,971.5C 732.331,966.995 734.998,963.995 739.5,962.5C 748.141,961.502 756.808,961.169 765.5,961.5C 765.5,950.167 765.5,938.833 765.5,927.5C 756.808,927.831 748.141,927.498 739.5,926.5C 734.998,925.005 732.331,922.005 731.5,917.5C 716.152,917.833 700.819,917.499 685.5,916.5C 682.486,913.553 681.152,909.887 681.5,905.5C 681.152,901.113 682.486,897.447 685.5,894.5C 700.819,893.501 716.152,893.167 731.5,893.5C 732.331,888.995 734.998,885.995 739.5,884.5C 748.141,883.502 756.808,883.169 765.5,883.5C 765.5,872.167 765.5,860.833 765.5,849.5C 756.808,849.831 748.141,849.498 739.5,848.5C 734.998,847.005 732.331,844.005 731.5,839.5C 716.152,839.833 700.819,839.499 685.5,838.5C 682.486,835.553 681.152,831.887 681.5,827.5C 681.152,823.113 682.486,819.447 685.5,816.5C 700.819,815.501 716.152,815.167 731.5,815.5C 732.331,810.995 734.998,807.995 739.5,806.5C 748.141,805.502 756.808,805.169 765.5,805.5C 765.187,802.753 765.52,800.086 766.5,797.5C 772.833,783.167 783.167,772.833 797.5,766.5C 800.086,765.52 802.753,765.187 805.5,765.5C 805.169,756.808 805.502,748.141 806.5,739.5C 807.995,734.998 810.995,732.331 815.5,731.5C 815.167,716.152 815.501,700.819 816.5,685.5C 817.934,684.412 818.934,683.078 819.5,681.5 Z M 815.5,799.5 C 811.791,801.879 808.124,804.546 804.5,807.5C 803.167,810.167 801.833,812.833 800.5,815.5C 799.167,952.833 799.167,1090.17 800.5,1227.5C 802.833,1235.17 807.833,1240.17 815.5,1242.5C 953.5,1243.83 1091.5,1243.83 1229.5,1242.5C 1237.17,1240.17 1242.17,1235.17 1244.5,1227.5C 1245.83,1090.17 1245.83,952.833 1244.5,815.5C 1242.17,807.833 1237.17,802.833 1229.5,800.5C 1091.5,799.5 953.502,799.167 815.5,799.5 Z"/>
  </g>
  <g>
    <path style="opacity:1" fill="#000000" d="M 819.5,807.5 C 954.835,807.167 1090.17,807.5 1225.5,808.5C 1230.5,810.833 1234.17,814.5 1236.5,819.5C 1237.83,954.167 1237.83,1088.83 1236.5,1223.5C 1234.17,1228.5 1230.5,1232.17 1225.5,1234.5C 1090.17,1235.83 954.833,1235.83 819.5,1234.5C 814.5,1232.17 810.833,1228.5 808.5,1223.5C 807.167,1088.83 807.167,954.167 808.5,819.5C 811.219,814.455 814.886,810.455 819.5,807.5 Z"/>
  </g>
</svg>
